# xmcd
#
# Track frame offsets:
#	150
#	17924
#	36772
#	54711
#	75155
#	90273
#	108351
#	126005
#	147086
#	166627
#	184401
#	203249
#	221188
#	241632
#	256750
#	274828
#	292482
#	313563
#
# Disc length: 4441 seconds
#
# Revision: 1
# Processed by: cddbd v1.5.2PL0 Copyright (c) Steve Scherf et al.
# Submitted via: audiograbber 1.83.01
#
DISCID=f9115712
DTITLE=Various Artist - PHMP0608
DYEAR=2006
DGENRE=karaoke
TTITLE0=My Destiny - Katherine McPhee
TTITLE1=Buttons - Pussycat Dolls/Snoop Dogg
TTITLE2=Unfaithful - Rihanna
TTITLE3=Doing Too Much - Paula Deanda/Baby Bash
TTITLE4=Crowded - Jeannie Ortega/Papoose
TTITLE5=Stay With You - Goo Goo Dolls
TTITLE6=Happy - Saving Jane
TTITLE7=The Adventure - Angels and Airwaves
TTITLE8=Give it Up to Me - Sean Paul
TTITLE9=My Destiny - Katherine McPhee (vocal)
TTITLE10=Buttons - Pussycat Dolls/Snoop Dogg (vocal)
TTITLE11=Unfaithful - Rihanna (vocal)
TTITLE12=Doing too Much - Paula Deanda/Baby Bash (vocal)
TTITLE13=Crowded - Jeannie Ortega/Papoose (vocal)
TTITLE14=Stay With you - Goo Goo Dolla (vocal)
TTITLE15=Happy - Saving Jane (vocal)
TTITLE16=The Adventure - Angels and Airwaves (vocal)
TTITLE17=Give It Up to Me - Sean Pau (vocal)
EXTD=
EXTT0=
EXTT1=
EXTT2=
EXTT3=
EXTT4=
EXTT5=
EXTT6=
EXTT7=
EXTT8=
EXTT9=
EXTT10=
EXTT11=
EXTT12=
EXTT13=
EXTT14=
EXTT15=
EXTT16=
EXTT17=
PLAYORDER=
